<svg width="16" height="16" xmlns="http://www.w3.org/2000/svg" xmlns:xlink="http://www.w3.org/1999/xlink"><defs><path d="M11.75 2c.62 0 1.15.22 1.59.66.44.44.66.97.66 1.59v7.5c0 .62-.22 1.15-.66 1.59-.44.44-.97.66-1.59.66h-1.469V9.352h1.555l.234-1.813h-1.789V6.383c0-.292.061-.51.184-.656.122-.146.36-.22.715-.22l.953-.007V3.883c-.328-.047-.792-.07-1.39-.07-.71 0-1.276.208-1.7.624-.425.417-.637 1.006-.637 1.766V7.54H6.844v1.813h1.562V14H4.25c-.62 0-1.15-.22-1.59-.66-.44-.44-.66-.97-.66-1.59v-7.5c0-.62.22-1.15.66-1.59.44-.44.97-.66 1.59-.66h7.5z" id="a"/></defs><use fill="#FFF" xlink:href="#a" fill-rule="evenodd"/></svg>